<mxfile host="app.diagrams.net" modified="2024-05-28T14:43:03.190Z" agent="Mozilla/5.0 (Windows NT 10.0; Win64; x64; rv:126.0) Gecko/20100101 Firefox/126.0" version="24.4.9" etag="7wQiRvoGqmZKy9R9RR7l" type="github">
  <diagram name="Pagina-1" id="HGh5Sq8z_11BNffqKwV8">
    <mxGraphModel>
      <root>
        <mxCell id="0" />
        <mxCell id="1" parent="0" />
        <mxCell id="2" value="Data Collection" style="whiteSpace=wrap;strokeWidth=2;" vertex="1" parent="1">
          <mxGeometry x="17" width="125" height="33" as="geometry" />
        </mxCell>
        <mxCell id="3" value="Data Preprocessing" style="whiteSpace=wrap;strokeWidth=2;" vertex="1" parent="1">
          <mxGeometry x="4" y="83" width="151" height="34" as="geometry" />
        </mxCell>
        <mxCell id="4" value="Feature Engineering" style="whiteSpace=wrap;strokeWidth=2;" vertex="1" parent="1">
          <mxGeometry y="167" width="159" height="34" as="geometry" />
        </mxCell>
        <mxCell id="5" value="Model Training" style="whiteSpace=wrap;strokeWidth=2;" vertex="1" parent="1">
          <mxGeometry x="20" y="251" width="119" height="34" as="geometry" />
        </mxCell>
        <mxCell id="6" value="Model Evaluation" style="whiteSpace=wrap;strokeWidth=2;" vertex="1" parent="1">
          <mxGeometry x="11" y="334" width="137" height="33" as="geometry" />
        </mxCell>
        <mxCell id="7" value="Model Deployment" style="whiteSpace=wrap;strokeWidth=2;" vertex="1" parent="1">
          <mxGeometry x="6" y="418" width="148" height="34" as="geometry" />
        </mxCell>
        <mxCell id="8" value="" style="curved=1;startArrow=none;endArrow=block;exitX=0.5004000244140625;exitY=1.0121212583599668;entryX=0.5003311460381312;entryY=0.011764750761144301;" edge="1" parent="1" source="2" target="3">
          <mxGeometry relative="1" as="geometry">
            <Array as="points" />
          </mxGeometry>
        </mxCell>
        <mxCell id="9" value="" style="curved=1;startArrow=none;endArrow=block;exitX=0.5003311460381312;exitY=0.9990196228027344;entryX=0.5003144846022504;entryY=-0.000980377197265625;" edge="1" parent="1" source="3" target="4">
          <mxGeometry relative="1" as="geometry">
            <Array as="points" />
          </mxGeometry>
        </mxCell>
        <mxCell id="10" value="" style="curved=1;startArrow=none;endArrow=block;exitX=0.5003144846022504;exitY=0.9862744948443245;entryX=0.5004201937122505;entryY=-0.013725505155675551;" edge="1" parent="1" source="4" target="5">
          <mxGeometry relative="1" as="geometry">
            <Array as="points" />
          </mxGeometry>
        </mxCell>
        <mxCell id="11" value="" style="curved=1;startArrow=none;endArrow=block;exitX=0.5004201937122505;exitY=0.9735293668859145;entryX=0.5003649857792541;entryY=0.0030302567915482955;" edge="1" parent="1" source="5" target="6">
          <mxGeometry relative="1" as="geometry">
            <Array as="points" />
          </mxGeometry>
        </mxCell>
        <mxCell id="12" value="" style="curved=1;startArrow=none;endArrow=block;exitX=0.5003649857792541;exitY=1.0151515151515151;entryX=0.4969594800794447;entryY=-0.014705882352941176;" edge="1" parent="1" source="6" target="7">
          <mxGeometry relative="1" as="geometry">
            <Array as="points" />
          </mxGeometry>
        </mxCell>
      </root>
    </mxGraphModel>
  </diagram>
</mxfile>
